<svg width="107" height="47" viewBox="0 0 107 47" fill="none" xmlns="http://www.w3.org/2000/svg">
<path d="M3.9972 43.9988L3.8999 43.3625C3.61502 43.6117 3.28831 43.8078 2.93506 43.9417C2.60272 44.0778 2.24791 44.1497 1.88914 44.1538C1.63804 44.1674 1.38678 44.1303 1.1501 44.0449C0.913413 43.9594 0.696066 43.8273 0.510798 43.6562C0.335367 43.4861 0.19826 43.28 0.108741 43.052C0.0192217 42.824 -0.020625 42.5793 -0.00810836 42.3345C-0.018326 42.0637 0.0333807 41.7941 0.143026 41.5466C0.25267 41.2991 0.417327 41.0802 0.624309 40.9068C1.10933 40.5344 1.70953 40.3466 2.31886 40.3765C2.83633 40.3842 3.35093 40.4554 3.85125 40.5886V39.7727C3.8695 39.6052 3.85219 39.4356 3.80048 39.2753C3.74876 39.115 3.66382 38.9675 3.55126 38.8427C3.2566 38.6332 2.89679 38.5376 2.53777 38.5734C1.81089 38.5826 1.09046 38.7122 0.405395 38.9569V38.1084C0.742697 37.9365 1.10331 37.8156 1.47564 37.7494C1.89425 37.6612 2.32089 37.6175 2.74858 37.6189C3.35263 37.5685 3.95444 37.7394 4.44313 38.1002C4.6363 38.2894 4.78581 38.519 4.88108 38.7728C4.97635 39.0266 5.01506 39.2983 4.99447 39.5688V43.9988H3.9972ZM2.17292 43.2401C2.78474 43.2167 3.37299 42.9965 3.85125 42.6119V41.3718C3.42981 41.2644 2.99684 41.2096 2.5621 41.2086C1.65401 41.2086 1.19186 41.5676 1.19186 42.2692C1.18365 42.4004 1.20245 42.5319 1.2471 42.6555C1.29174 42.779 1.36127 42.8919 1.45132 42.9872C1.55015 43.076 1.66558 43.1441 1.79087 43.1875C1.91616 43.231 2.0488 43.2488 2.18103 43.2401H2.17292ZM10.9538 43.9988V39.8543C10.9815 39.5141 10.8866 39.1752 10.6862 38.8998C10.5816 38.7924 10.4546 38.7097 10.3144 38.6575C10.1742 38.6053 10.0243 38.5849 9.87543 38.5979C9.20047 38.6081 8.54452 38.8243 7.99439 39.2179V43.9988H6.78631V37.7984H7.79169L7.91331 38.4837C8.60683 37.9328 9.46219 37.6287 10.3457 37.6189C10.5903 37.6009 10.8359 37.6336 11.0674 37.715C11.2989 37.7964 11.5114 37.9247 11.6916 38.0921C11.8586 38.2793 11.9857 38.4989 12.0652 38.7375C12.1447 38.976 12.1748 39.2283 12.1537 39.479V44.0315L10.9538 43.9988ZM62.22 43.7622C61.7167 44.0141 61.1605 44.14 60.5985 44.1294C60.1971 44.1558 59.7947 44.0968 59.4175 43.9562C59.0403 43.8157 58.6968 43.5967 58.4093 43.3135C57.9076 42.6172 57.6374 41.7791 57.6374 40.919C57.6374 40.0589 57.9076 39.2208 58.4093 38.5245C58.7005 38.2394 59.0481 38.0194 59.4295 37.8788C59.8109 37.7382 60.2176 37.6802 60.6228 37.7086C61.1527 37.7056 61.6764 37.8227 62.1552 38.0513V38.9161C61.722 38.7633 61.2681 38.678 60.8093 38.6632C60.5416 38.6376 60.2717 38.6711 60.0182 38.7612C59.7648 38.8514 59.5339 38.9961 59.3417 39.1853C59.005 39.6586 58.8469 40.2371 58.8958 40.817V40.972C58.8492 41.553 59.0102 42.1316 59.3498 42.6037C59.5368 42.7908 59.7621 42.9344 60.01 43.0246C60.2579 43.1148 60.5224 43.1494 60.7849 43.1259C61.2728 43.1172 61.7566 43.0347 62.22 42.8811V43.7622ZM65.9983 44.1783C65.5967 44.2013 65.1949 44.1359 64.821 43.9865C64.4471 43.8371 64.1101 43.6075 63.8335 43.3135C63.3224 42.6134 63.0468 41.7673 63.0468 40.8986C63.0468 40.0299 63.3224 39.1838 63.8335 38.4837C64.4176 37.9283 65.1907 37.6188 65.9943 37.6188C66.7979 37.6188 67.571 37.9283 68.155 38.4837C68.6661 39.1838 68.9417 40.0299 68.9417 40.8986C68.9417 41.7673 68.6661 42.6134 68.155 43.3135C67.88 43.6073 67.5444 43.8369 67.1719 43.9863C66.7993 44.1357 66.3987 44.2012 65.9983 44.1783ZM65.9983 43.1993C67.1334 43.1993 67.7091 42.4324 67.7091 40.8904C67.7091 39.3485 67.1334 38.5979 65.9983 38.5979C64.8632 38.5979 64.2876 39.3566 64.2876 40.8904C64.2876 42.4242 64.8551 43.1993 65.9983 43.1993ZM78.2818 43.9988V39.789C78.3061 39.4729 78.2263 39.1576 78.0548 38.8916C77.9643 38.7888 77.8512 38.7087 77.7245 38.6577C77.5978 38.6068 77.461 38.5863 77.3251 38.5979C76.6915 38.6096 76.0738 38.7989 75.5413 39.1445C75.5456 39.207 75.5456 39.2697 75.5413 39.3322V43.9988H74.3414V39.789C74.3621 39.4732 74.2826 39.159 74.1143 38.8916C74.0239 38.7888 73.9108 38.7087 73.7841 38.6577C73.6574 38.6068 73.5206 38.5863 73.3846 38.5979C72.7537 38.6024 72.1374 38.7894 71.609 39.1364V44.0315H70.409V37.831H71.4144L71.536 38.4592C72.193 37.9619 72.9848 37.6774 73.8062 37.6434C74.1177 37.607 74.4328 37.6681 74.7085 37.8185C74.9842 37.9689 75.2071 38.2012 75.3467 38.4837C76.0423 37.9366 76.8964 37.6329 77.7791 37.6189C78.0149 37.6024 78.2516 37.6361 78.4737 37.7176C78.6958 37.7991 78.8983 37.9267 79.0683 38.0921C79.3825 38.4814 79.5312 38.9799 79.4818 39.479V44.0315L78.2818 43.9988ZM81.2574 46.5117V37.7984H82.2628L82.3763 38.4347C82.9332 37.9119 83.666 37.6205 84.4276 37.6189C84.7789 37.599 85.13 37.6624 85.4526 37.8042C85.7751 37.9459 86.06 38.1619 86.2843 38.4347C86.7699 39.1143 87.0102 39.9404 86.9654 40.7762C87.0172 41.6519 86.7618 42.5182 86.2438 43.2238C86.0203 43.5159 85.7309 43.7504 85.3996 43.9078C85.0683 44.0653 84.7046 44.1412 84.3384 44.1294C83.6427 44.1437 82.9686 43.8864 82.4574 43.4114V46.5117H81.2574ZM84.0871 38.5979C83.5003 38.6044 82.9314 38.8019 82.4655 39.1608V42.5629C82.9271 42.9328 83.497 43.1393 84.0871 43.1503C85.2059 43.1503 85.7573 42.3916 85.7573 40.8823C85.805 40.2799 85.6632 39.6776 85.3519 39.1608C85.2058 38.9668 85.013 38.8134 84.7918 38.7149C84.5705 38.6164 84.328 38.5761 84.0871 38.5979ZM92.0652 43.9988L91.9679 43.3625C91.6831 43.6117 91.3563 43.8078 91.0031 43.9417C90.6679 44.0777 90.3104 44.1496 89.9491 44.1538C89.698 44.1665 89.447 44.129 89.2105 44.0436C88.9739 43.9582 88.7565 43.8265 88.5707 43.6562C88.398 43.4844 88.2633 43.2779 88.1753 43.0502C88.0872 42.8224 88.0479 42.5786 88.0599 42.3345C88.0487 42.0643 88.0992 41.7952 88.2074 41.5477C88.3156 41.3002 88.4787 41.081 88.6842 40.9068C89.1717 40.5332 89.7749 40.3454 90.3869 40.3765C90.9044 40.3842 91.419 40.4554 91.9193 40.5886V39.7727C91.9355 39.6053 91.9172 39.4363 91.8656 39.2762C91.814 39.1162 91.7302 38.9686 91.6193 38.8427C91.3246 38.6332 90.9648 38.5376 90.6058 38.5734C89.8762 38.5819 89.153 38.7115 88.4653 38.9569V38.1084C88.8026 37.9365 89.1632 37.8156 89.5356 37.7494C89.9542 37.6616 90.3808 37.6179 90.8085 37.6189C91.4149 37.5702 92.0187 37.7409 92.5112 38.1002C92.7029 38.2902 92.8509 38.5201 92.9447 38.7738C93.0386 39.0276 93.076 39.2989 93.0544 39.5688V43.9988H92.0652ZM90.2409 43.2401C90.8528 43.2167 91.441 42.9965 91.9193 42.6119V41.3718C91.4978 41.2644 91.0649 41.2096 90.6301 41.2086C89.7139 41.2086 89.2599 41.5676 89.2599 42.2692C89.2506 42.3998 89.2681 42.531 89.3114 42.6545C89.3546 42.778 89.4226 42.8913 89.5112 42.9872C89.7123 43.1643 89.9742 43.255 90.2409 43.2401ZM99.0056 43.9988V39.8543C99.0315 39.5155 98.9398 39.1782 98.7461 38.8998C98.6415 38.7924 98.5145 38.7097 98.3743 38.6575C98.2342 38.6053 98.0843 38.5849 97.9354 38.5979C97.2604 38.6081 96.6044 38.8243 96.0543 39.2179V43.9988H94.8543V37.7984H95.8597L95.9813 38.4837C96.6746 37.9323 97.5301 37.6281 98.4137 37.6189C98.6595 37.6007 98.9065 37.6333 99.1393 37.7147C99.3722 37.7961 99.586 37.9245 99.7677 38.0921C100.091 38.4656 100.254 38.9524 100.222 39.4464V43.9988H99.0056ZM106.968 37.7984L104.162 45.0839C104.014 45.5449 103.752 45.9605 103.4 46.2914C103.08 46.5449 102.68 46.6751 102.273 46.6585C101.952 46.6607 101.633 46.6026 101.333 46.4872V45.6224C101.558 45.679 101.789 45.7064 102.022 45.704C102.279 45.719 102.534 45.6377 102.735 45.4755C102.954 45.2461 103.113 44.9658 103.197 44.6597L103.433 44.0396L100.951 37.782H102.241L104.016 42.8566L105.727 37.782H106.968V37.7984ZM24.0967 12.7436H3.49451V12.6294C3.56751 11.9003 3.73656 11.1842 3.9972 10.5C4.86866 7.94406 6.61245 5.78179 8.91869 4.39744C10.4784 3.50905 12.2517 3.07144 14.0429 3.13287C15.3902 3.12591 16.726 3.38364 17.9752 3.89161C19.1627 4.36626 20.2496 5.06399 21.1778 5.94755C22.0713 6.80327 22.795 7.82214 23.3102 8.94988C23.8469 10.0983 24.1238 11.3522 24.121 12.6212L24.0967 12.7436ZM14.2294 -5.02914e-08C12.2637 -0.0262437 10.3142 0.359976 8.50519 1.13403C6.80852 1.88115 5.27622 2.95991 3.9972 4.30769C2.71091 5.6768 1.7053 7.2875 1.03781 9.04778C0.331963 10.9522 -0.0198253 12.971 -2.72878e-07 15.0035C-0.0256106 17.0882 0.320394 19.1606 1.0216 21.1224C1.66167 22.8966 2.65489 24.5206 3.94044 25.8951C5.2244 27.2471 6.77698 28.3118 8.49708 29.0198C10.3765 29.7847 12.3887 30.1647 14.4158 30.1375C16.8248 30.1637 19.2121 29.6772 21.4211 28.7098C23.5805 27.706 25.4113 26.1044 26.6993 24.0921L24.1453 21.9301C23.1549 23.5074 21.7524 24.7803 20.0914 25.6096C18.3688 26.5136 16.456 26.9892 14.5131 26.9965C12.6224 27.0733 10.746 26.6365 9.08085 25.7319C7.76614 24.9638 6.62335 23.9305 5.72418 22.697C4.92986 21.611 4.34415 20.3852 3.9972 19.0828C3.71746 18.086 3.55955 17.0586 3.52694 16.0233V15.9091H27.5912V13.3718C27.5792 11.7003 27.2773 10.0438 26.6993 8.47669C26.1327 6.88816 25.2654 5.42526 24.1453 4.169C22.9804 2.88462 21.568 1.85205 19.9941 1.13403C18.176 0.342055 16.2101 -0.0474718 14.2294 -0.00815875V-5.02914e-08ZM55.8878 12.7436H35.2937V12.6294C35.3667 11.9003 35.5358 11.1842 35.7964 10.5C36.1909 9.35357 36.7628 8.277 37.4909 7.31002C38.3742 6.13909 39.4758 5.15257 40.7341 4.40559C42.2927 3.51441 44.0668 3.0766 45.8583 3.14102C47.203 3.13408 48.5361 3.39183 49.7825 3.89977C50.9854 4.3678 52.0868 5.06599 53.0257 5.95571C53.8916 6.81726 54.5876 7.83597 55.077 8.95804C55.6099 10.1078 55.8866 11.3608 55.8878 12.6294V12.7436ZM46.0286 -5.02914e-08C44.0603 -0.0261847 42.1082 0.36001 40.2963 1.13403C38.6057 1.87985 37.0789 2.95579 35.8045 4.29953C34.5155 5.66652 33.5095 7.2778 32.8451 9.03963C32.1317 10.9451 31.777 12.9675 31.7992 15.0035C31.775 17.0874 32.1181 19.1591 32.8127 21.1224C33.4582 22.8958 34.4539 24.5193 35.7396 25.8951C37.0236 27.2471 38.5762 28.3118 40.2963 29.0198C42.1755 29.7854 44.1878 30.1654 46.215 30.1375C48.624 30.1637 51.0113 29.6772 53.2203 28.7098C55.3745 27.7046 57.1997 26.1029 58.4823 24.0921L55.9283 21.9301C54.9298 23.5156 53.5119 24.7897 51.8338 25.6096C50.1112 26.5136 48.1984 26.9892 46.2556 26.9965C44.3648 27.0733 42.4884 26.6365 40.8233 25.7319C39.5086 24.9638 38.3658 23.9305 37.4666 22.697C36.6778 21.611 36.1001 20.3847 35.764 19.0828C35.4842 18.086 35.3263 17.0586 35.2937 16.0233V15.9091H59.3904V13.3718C59.3847 11.7026 59.094 10.0468 58.5309 8.47669C57.9644 6.88816 57.097 5.42526 55.977 4.169C54.8129 2.8872 53.4037 1.85495 51.8338 1.13403C50.0153 0.343757 48.0497 -0.0456962 46.0691 -0.00815875L46.0286 -5.02914e-08ZM91.1085 26.9965C89.4712 27.0181 87.8475 26.6958 86.3411 26.0501C84.9691 25.4506 83.731 24.5794 82.7006 23.4883C81.689 22.3973 80.9108 21.1088 80.4142 19.7028C79.3659 16.7035 79.3659 13.434 80.4142 10.4347C80.9127 9.02719 81.6906 7.73643 82.7006 6.64102C83.7315 5.5526 84.9695 4.68414 86.3411 4.08741C89.3956 2.82532 92.8214 2.82532 95.8759 4.08741C97.2491 4.67259 98.486 5.53921 99.5078 6.63205C100.53 7.72489 101.314 9.01997 101.811 10.4347C102.859 13.434 102.859 16.7035 101.811 19.7028C101.31 21.1087 100.529 22.3969 99.5164 23.4883C98.4874 24.5811 97.249 25.4526 95.8759 26.0501C94.3697 26.6964 92.7458 27.0188 91.1085 26.9965ZM91.1085 -5.02914e-08C89.0442 -0.0129767 86.9966 0.371967 85.0762 1.13403C83.2949 1.82934 81.6788 2.89396 80.3331 4.25874C79.0026 5.62906 77.9554 7.25125 77.2521 9.03147C76.5049 10.9544 76.1332 13.0042 76.1575 15.0688C76.1363 17.1398 76.5135 19.1955 77.2683 21.1224C77.9717 22.9026 79.0188 24.5248 80.3493 25.8951C81.6945 27.2528 83.3037 28.3165 85.0762 29.0198C87.0002 29.7773 89.0507 30.1567 91.1166 30.1375C93.1748 30.1589 95.2177 29.7794 97.1327 29.0198C98.9107 28.3164 100.526 27.2522 101.877 25.8935C103.229 24.5348 104.288 22.9108 104.989 21.1224C106.47 17.2242 106.47 12.9133 104.989 9.01515C104.28 7.23007 103.221 5.6069 101.876 4.24242C100.518 2.89305 98.9013 1.83551 97.1246 1.13403C95.2096 0.374496 93.1667 -0.00505176 91.1085 0.0163158V-5.02914e-08ZM63.566 29.3869H67.0605V13.7552C67.0507 12.3996 67.2392 11.0499 67.6199 9.74942C67.9743 8.55529 68.5645 7.44537 69.355 6.48601C70.1573 5.53359 71.1711 4.78456 72.3144 4.29953C73.6203 3.74701 75.0247 3.46936 76.4413 3.48368V0.220278C72.3873 0.301864 69.1847 1.55827 66.9713 3.94056C63.3308 7.84848 63.566 13.5268 63.566 13.5839V29.3869Z" fill="black"/>
</svg>
