<svg width="30" height="30" viewBox="0 0 30 30" fill="none" xmlns="http://www.w3.org/2000/svg">
<path d="M16.024 30H1.65577C0.741046 30 0 29.2585 0 28.3442V1.65576C0 0.741156 0.741162 0 1.65577 0H28.3443C29.2587 0 30 0.741156 30 1.65576V28.3442C30 29.2586 29.2586 30 28.3443 30H20.6996V18.3823H24.5991L25.183 13.8547H20.6996V10.9642C20.6996 9.65333 21.0636 8.76 22.9433 8.76L25.3408 8.75892V4.70943C24.9262 4.65426 23.503 4.53098 21.8472 4.53098C18.3905 4.53098 16.024 6.64095 16.024 10.5157V13.8547H12.1144V18.3823H16.024V30Z" fill="white"/>
</svg>
