<svg width="30" height="28" viewBox="0 0 30 28" fill="none" xmlns="http://www.w3.org/2000/svg">
<path fill-rule="evenodd" clip-rule="evenodd" d="M3.53128 6.79159H3.48895C1.3723 6.79159 0 5.3753 0 3.58005C0 1.74988 1.41286 0.363281 3.57185 0.363281C5.72907 0.363281 7.0555 1.74639 7.09784 3.57482C7.09784 5.37006 5.72907 6.79159 3.53128 6.79159ZM30 27.636H23.3696V18.0486C23.3696 15.539 22.3325 13.8259 20.0517 13.8259C18.3073 13.8259 17.3372 14.982 16.8855 16.0961C16.7365 16.4483 16.7392 16.9222 16.742 17.4107V17.4108C16.7424 17.4771 16.7427 17.5436 16.7427 17.6102V27.636H10.174C10.174 27.636 10.2587 10.6527 10.174 9.109H16.7427V12.0166C17.1307 10.7453 19.2298 8.93087 22.5794 8.93087C26.7351 8.93087 30 11.5958 30 17.3343V27.636ZM6.60395 9.109H0.756703V27.636H6.60395V9.109Z" fill="white"/>
</svg>
