<svg width="30" height="30" viewBox="0 0 30 30" fill="none" xmlns="http://www.w3.org/2000/svg">
<path fill-rule="evenodd" clip-rule="evenodd" d="M15 0C10.9262 0 10.4154 0.0172675 8.8155 0.0902667C7.21894 0.163087 6.12854 0.416679 5.17443 0.787511C4.18805 1.17078 3.35153 1.68368 2.51758 2.51758C1.68368 3.35153 1.17078 4.18805 0.787511 5.17443C0.416679 6.12854 0.163087 7.21894 0.0902667 8.8155C0.0172675 10.4154 0 10.9262 0 15C0 19.0737 0.0172675 19.5846 0.0902667 21.1845C0.163087 22.7811 0.416679 23.8715 0.787511 24.8256C1.17078 25.8119 1.68368 26.6485 2.51758 27.4824C3.35153 28.3163 4.18805 28.8292 5.17443 29.2126C6.12854 29.5833 7.21894 29.8369 8.8155 29.9097C10.4154 29.9827 10.9262 30 15 30C19.0737 30 19.5846 29.9827 21.1845 29.9097C22.7811 29.8369 23.8715 29.5833 24.8256 29.2126C25.8119 28.8292 26.6485 28.3163 27.4824 27.4824C28.3163 26.6485 28.8292 25.8119 29.2126 24.8256C29.5833 23.8715 29.8369 22.7811 29.9097 21.1845C29.9827 19.5846 30 19.0737 30 15C30 10.9262 29.9827 10.4154 29.9097 8.8155C29.8369 7.21894 29.5833 6.12854 29.2126 5.17443C28.8292 4.18805 28.3163 3.35153 27.4824 2.51758C26.6485 1.68368 25.8119 1.17078 24.8256 0.787511C23.8715 0.416679 22.7811 0.163087 21.1845 0.0902667C19.5846 0.0172675 19.0737 0 15 0ZM15 2.7027C19.0052 2.7027 19.4796 2.718 21.0613 2.79017C22.5238 2.85685 23.318 3.10122 23.8466 3.30664C24.5467 3.57875 25.0464 3.90379 25.5712 4.42872C26.0962 4.95358 26.4213 5.45327 26.6933 6.15343C26.8988 6.68199 27.1432 7.47622 27.2098 8.93875C27.282 10.5204 27.2973 10.9948 27.2973 15C27.2973 19.0052 27.282 19.4796 27.2098 21.0613C27.1432 22.5238 26.8988 23.318 26.6933 23.8466C26.4213 24.5467 26.0962 25.0464 25.5712 25.5712C25.0464 26.0962 24.5467 26.4213 23.8466 26.6933C23.318 26.8988 22.5238 27.1432 21.0613 27.2098C19.4798 27.282 19.0055 27.2973 15 27.2973C10.9945 27.2973 10.5202 27.282 8.93875 27.2098C7.47622 27.1432 6.68199 26.8988 6.15343 26.6933C5.45327 26.4213 4.95358 26.0962 4.42872 25.5712C3.90385 25.0464 3.57875 24.5467 3.30664 23.8466C3.10122 23.318 2.85685 22.5238 2.79017 21.0613C2.718 19.4796 2.7027 19.0052 2.7027 15C2.7027 10.9948 2.718 10.5204 2.79017 8.93875C2.85685 7.47622 3.10122 6.68199 3.30664 6.15343C3.57875 5.45327 3.90379 4.95358 4.42872 4.42872C4.95358 3.90379 5.45327 3.57875 6.15343 3.30664C6.68199 3.10122 7.47622 2.85685 8.93875 2.79017C10.5204 2.718 10.9948 2.7027 15 2.7027ZM7.2973 15C7.2973 10.7459 10.7459 7.2973 15 7.2973C19.2541 7.2973 22.7027 10.7459 22.7027 15C22.7027 19.2541 19.2541 22.7027 15 22.7027C10.7459 22.7027 7.2973 19.2541 7.2973 15ZM15 20C12.2386 20 10 17.7614 10 15C10 12.2386 12.2386 10 15 10C17.7614 10 20 12.2386 20 15C20 17.7614 17.7614 20 15 20ZM23.007 8.79292C24.0012 8.79292 24.8071 7.9871 24.8071 6.99298C24.8071 5.99886 24.0012 5.19295 23.007 5.19295C22.0129 5.19295 21.2071 5.99886 21.2071 6.99298C21.2071 7.9871 22.0129 8.79292 23.007 8.79292Z" fill="white"/>
</svg>
