<svg width="30" height="30" viewBox="0 0 30 30" fill="none" xmlns="http://www.w3.org/2000/svg">
<path d="M15.0009 0C6.71723 0 0 6.71547 0 15.0009C0 21.1413 3.69377 26.4191 8.98042 28.7387C8.93808 27.6927 8.97333 26.4332 9.23975 25.2937C9.529 24.0766 11.1695 17.1212 11.1695 17.1212C11.1695 17.1212 10.6915 16.1633 10.6915 14.7468C10.6915 12.5242 11.9809 10.8643 13.5844 10.8643C14.948 10.8643 15.6077 11.8892 15.6077 13.1169C15.6077 14.4876 14.7327 16.5391 14.2829 18.4389C13.9072 20.0317 15.0802 21.3283 16.6502 21.3283C19.492 21.3283 21.4059 17.6786 21.4059 13.3533C21.4059 10.067 19.1921 7.60628 15.1649 7.60628C10.6157 7.60628 7.78092 10.9984 7.78092 14.7874C7.78092 16.0963 8.16546 17.0171 8.76875 17.7297C9.04742 18.0596 9.0845 18.1902 8.98392 18.5677C8.91342 18.8411 8.74758 19.5078 8.67875 19.7707C8.57825 20.1499 8.2713 20.2875 7.92909 20.1464C5.83172 19.2909 4.85623 16.9959 4.85623 14.4152C4.85623 10.1552 8.4495 5.04322 15.5759 5.04322C21.3036 5.04322 25.0732 9.19033 25.0732 13.6373C25.0732 19.522 21.8027 23.9178 16.9783 23.9178C15.3608 23.9178 13.8367 23.0428 13.3145 22.0497C13.3145 22.0497 12.4431 25.5054 12.2597 26.1722C11.9422 27.3276 11.3194 28.4847 10.7497 29.3843C12.0992 29.783 13.5244 30 15.0009 30C23.2845 30 30 23.2845 30 15.0009C30 6.71547 23.2845 0 15.0009 0Z" fill="white"/>
</svg>
