<svg width="30" height="26" viewBox="0 0 30 26" fill="none" xmlns="http://www.w3.org/2000/svg">
<path d="M30 3.45955C28.8977 3.96154 27.7108 4.30101 26.4659 4.45269C27.7372 3.67262 28.7128 2.43572 29.1724 0.962261C27.982 1.68454 26.6667 2.21 25.2615 2.49169C24.1416 1.26562 22.5409 0.5 20.7695 0.5C17.3728 0.5 14.617 3.32593 14.617 6.81094C14.617 7.30571 14.6698 7.78603 14.7755 8.24828C9.66017 7.98465 5.1259 5.47472 2.08839 1.65204C1.55837 2.5874 1.2555 3.67263 1.2555 4.82828C1.2555 7.01679 2.34196 8.94892 3.99366 10.0811C2.98644 10.0504 2.03557 9.76325 1.20444 9.29375V9.37142C1.20444 12.4303 3.32629 14.9818 6.14369 15.5596C5.62775 15.7077 5.08364 15.7817 4.52192 15.7817C4.12572 15.7817 3.73833 15.7437 3.36327 15.6697C4.14686 18.1761 6.41838 20.0016 9.1125 20.0504C7.00652 21.7442 4.35112 22.7535 1.46857 22.7535C0.972 22.7535 0.480718 22.7247 0 22.6668C2.72407 24.4545 5.96056 25.5 9.43475 25.5C20.7572 25.5 26.9467 15.8846 26.9467 7.54406C26.9467 7.26959 26.9413 6.99512 26.9308 6.72608C28.1335 5.83586 29.1777 4.72535 30 3.45955Z" fill="white"/>
</svg>
